<svg width="153" height="41" viewBox="0 0 153 41" fill="none" xmlns="http://www.w3.org/2000/svg">
<path d="M69.1182 17.4757H62.2014L62.1639 14.5703H68.4434C69.4806 14.5703 70.3867 14.3953 71.1614 14.0454C71.9362 13.6955 72.5361 13.1957 72.9609 12.5458C73.3983 11.8835 73.617 11.0962 73.617 10.184C73.617 9.18424 73.4233 8.37196 73.0359 7.74714C72.661 7.10981 72.0799 6.64744 71.2927 6.36001C70.5179 6.0601 69.5306 5.91014 68.331 5.91014H63.0074V30.241H59.3896V2.94844H68.331C69.7306 2.94844 70.9802 3.09215 72.0799 3.37958C73.1796 3.6545 74.1106 4.09188 74.8729 4.69172C75.6477 5.27906 76.2351 6.02885 76.6349 6.9411C77.0348 7.85336 77.2348 8.94681 77.2348 10.2215C77.2348 11.3462 76.9474 12.3646 76.3725 13.2769C75.7977 14.1766 74.9979 14.9139 73.9732 15.4888C72.9609 16.0636 71.7738 16.4323 70.4116 16.5947L69.1182 17.4757ZM68.9495 30.241H60.7768L62.82 27.2981H68.9495C70.0992 27.2981 71.074 27.0981 71.8737 26.6982C72.686 26.2983 73.3046 25.736 73.7295 25.0112C74.1544 24.2739 74.3668 23.4054 74.3668 22.4056C74.3668 21.3934 74.1856 20.5187 73.8232 19.7814C73.4608 19.0441 72.8922 18.4755 72.1174 18.0756C71.3426 17.6757 70.3429 17.4757 69.1182 17.4757H63.9634L64.0009 14.5703H71.049L71.8175 15.62C73.1297 15.7325 74.2418 16.1074 75.1541 16.7447C76.0664 17.3695 76.7599 18.1693 77.2348 19.144C77.7222 20.1188 77.9658 21.1935 77.9658 22.3681C77.9658 24.0677 77.5909 25.5048 76.8411 26.6795C76.1038 27.8417 75.0604 28.7289 73.7107 29.3412C72.3611 29.9411 70.774 30.241 68.9495 30.241Z" fill="#999999"/>
<path d="M86.551 1.44885V30.241H83.0644V1.44885H86.551Z" fill="#999999"/>
<path d="M95.8859 9.95903V30.241H92.3994V9.95903H95.8859ZM92.137 4.57925C92.137 4.0169 92.3057 3.54203 92.6431 3.15464C92.993 2.76724 93.5053 2.57355 94.1802 2.57355C94.8425 2.57355 95.3486 2.76724 95.6985 3.15464C96.0609 3.54203 96.2421 4.0169 96.2421 4.57925C96.2421 5.1166 96.0609 5.57898 95.6985 5.96637C95.3486 6.34127 94.8425 6.52872 94.1802 6.52872C93.5053 6.52872 92.993 6.34127 92.6431 5.96637C92.3057 5.57898 92.137 5.1166 92.137 4.57925Z" fill="#999999"/>
<path d="M104.902 13.9892V30.241H101.416V9.95903H104.715L104.902 13.9892ZM104.19 19.3315L102.578 19.2752C102.59 17.8881 102.772 16.6072 103.121 15.4325C103.471 14.2454 103.99 13.2144 104.677 12.3396C105.365 11.4649 106.221 10.7901 107.245 10.3152C108.27 9.82782 109.457 9.58414 110.807 9.58414C111.757 9.58414 112.631 9.7216 113.431 9.99652C114.231 10.259 114.925 10.6776 115.512 11.2524C116.099 11.8273 116.555 12.5646 116.88 13.4643C117.205 14.3641 117.368 15.4513 117.368 16.7259V30.241H113.9V16.8946C113.9 15.8324 113.719 14.9827 113.356 14.3453C113.006 13.708 112.506 13.2456 111.857 12.9582C111.207 12.6583 110.444 12.5083 109.57 12.5083C108.545 12.5083 107.689 12.6895 107.002 13.0519C106.314 13.4143 105.765 13.9142 105.352 14.5515C104.94 15.1889 104.64 15.9199 104.452 16.7447C104.277 17.557 104.19 18.4192 104.19 19.3315ZM117.33 17.4195L115.006 18.1318C115.018 17.0196 115.199 15.9511 115.549 14.9264C115.912 13.9017 116.43 12.9895 117.105 12.1897C117.792 11.3899 118.636 10.7588 119.636 10.2964C120.635 9.82157 121.779 9.58414 123.066 9.58414C124.153 9.58414 125.115 9.72785 125.953 10.0153C126.803 10.3027 127.515 10.7463 128.09 11.3462C128.677 11.9335 129.121 12.6895 129.421 13.6143C129.72 14.539 129.87 15.6387 129.87 16.9134V30.241H126.384V16.8759C126.384 15.7387 126.203 14.8577 125.84 14.2329C125.49 13.5955 124.991 13.1519 124.341 12.902C123.703 12.6396 122.941 12.5083 122.054 12.5083C121.292 12.5083 120.617 12.6396 120.029 12.902C119.442 13.1644 118.948 13.5268 118.549 13.9892C118.149 14.4391 117.842 14.9577 117.63 15.545C117.43 16.1323 117.33 16.7572 117.33 17.4195Z" fill="#999999"/>
<path d="M138.587 13.858V38.0389H135.1V9.95903H138.287L138.587 13.858ZM152.252 19.9313V20.325C152.252 21.7996 152.077 23.1679 151.727 24.4301C151.377 25.6797 150.865 26.767 150.19 27.6917C149.528 28.6164 148.709 29.335 147.734 29.8474C146.76 30.3597 145.641 30.6159 144.379 30.6159C143.092 30.6159 141.955 30.4035 140.967 29.9786C139.98 29.5537 139.143 28.9351 138.456 28.1228C137.768 27.3106 137.218 26.3358 136.806 25.1986C136.406 24.0614 136.131 22.7805 135.981 21.3559V19.2565C136.131 17.7569 136.412 16.4135 136.825 15.2263C137.237 14.0392 137.781 13.0269 138.456 12.1897C139.143 11.3399 139.974 10.6963 140.949 10.259C141.923 9.80907 143.048 9.58414 144.323 9.58414C145.597 9.58414 146.728 9.83407 147.716 10.3339C148.703 10.8213 149.534 11.5211 150.209 12.4334C150.883 13.3456 151.39 14.4391 151.727 15.7137C152.077 16.9759 152.252 18.3817 152.252 19.9313ZM148.765 20.325V19.9313C148.765 18.9191 148.659 17.9693 148.447 17.0821C148.234 16.1823 147.903 15.3951 147.453 14.7202C147.016 14.0329 146.453 13.4956 145.766 13.1082C145.079 12.7083 144.26 12.5083 143.311 12.5083C142.436 12.5083 141.673 12.6583 141.024 12.9582C140.386 13.2581 139.843 13.6643 139.393 14.1766C138.943 14.6765 138.574 15.2513 138.287 15.9012C138.012 16.5385 137.806 17.2008 137.668 17.8881V22.743C137.918 23.6178 138.268 24.4426 138.718 25.2174C139.168 25.9797 139.768 26.5982 140.518 27.0731C141.267 27.5355 142.211 27.7667 143.348 27.7667C144.285 27.7667 145.091 27.573 145.766 27.1856C146.453 26.7857 147.016 26.2421 147.453 25.5548C147.903 24.8675 148.234 24.0802 148.447 23.1929C148.659 22.2932 148.765 21.3372 148.765 20.325Z" fill="#999999"/>
<path d="M35.8806 10.1758C38.6891 10.1758 40.9659 7.89824 40.9659 5.08879C40.9659 2.27934 38.6891 0.00183105 35.8806 0.00183105C33.0721 0.00183105 30.7954 2.27934 30.7954 5.08879C30.7954 7.89824 33.0721 10.1758 35.8806 10.1758Z" fill="#999999"/>
<path d="M18.0824 5.08879C17.0958 5.08879 16.1296 5.17526 15.1838 5.32786C14.2074 2.24008 11.319 0.00183105 7.91191 0.00183105C3.70133 0.00183105 0.284058 3.42027 0.284058 7.63227C0.284058 9.96719 1.3367 12.0579 2.9894 13.4568C1.27568 16.1936 0.284058 19.4238 0.284058 22.8932C0.284058 32.7262 8.25262 40.6975 18.0824 40.6975C27.9121 40.6975 35.8807 32.7262 35.8807 22.8932C35.8807 13.0601 27.9121 5.08879 18.0824 5.08879ZM25.0237 27.9801C24.144 26.4591 22.5065 25.4366 20.625 25.4366C18.7434 25.4366 17.106 26.4591 16.2262 27.9801C15.794 27.2323 15.5398 26.3625 15.5398 25.4366C15.5398 22.6286 17.8179 20.3497 20.625 20.3497C23.432 20.3497 25.7102 22.6286 25.7102 25.4366C25.7102 26.3625 25.456 27.2323 25.0237 27.9801Z" fill="#999999"/>
</svg>
