<svg width="214" height="41" viewBox="0 0 214 41" fill="none" xmlns="http://www.w3.org/2000/svg">
<path d="M66.3566 19.5781H60.7676L60.7373 17.2304H65.8113C66.6494 17.2304 67.3815 17.089 68.0076 16.8063C68.6336 16.5236 69.1183 16.1197 69.4616 15.5946C69.815 15.0594 69.9918 14.4233 69.9918 13.6861C69.9918 12.8783 69.8352 12.222 69.5222 11.7171C69.2193 11.2021 68.7497 10.8285 68.1136 10.5963C67.4875 10.3539 66.6898 10.2327 65.7205 10.2327H61.4189V29.8928H58.4956V7.8396H65.7205C66.8514 7.8396 67.8612 7.95572 68.7497 8.18797C69.6383 8.41012 70.3906 8.76353 71.0066 9.24822C71.6326 9.72281 72.1072 10.3287 72.4303 11.0658C72.7535 11.8029 72.915 12.6865 72.915 13.7164C72.915 14.6252 72.6828 15.4482 72.2183 16.1853C71.7538 16.9123 71.1075 17.5081 70.2795 17.9726C69.4616 18.4371 68.5024 18.7349 67.4017 18.8662L66.3566 19.5781ZM66.2203 29.8928H59.6164L61.2674 27.5148H66.2203C67.1493 27.5148 67.9369 27.3533 68.5831 27.0301C69.2395 26.707 69.7393 26.2526 70.0826 25.667C70.426 25.0712 70.5976 24.3694 70.5976 23.5616C70.5976 22.7437 70.4512 22.0369 70.1584 21.4411C69.8655 20.8453 69.4061 20.3859 68.78 20.0628C68.154 19.7397 67.3462 19.5781 66.3566 19.5781H62.1913L62.2216 17.2304H67.9167L68.5377 18.0786C69.5979 18.1695 70.4966 18.4724 71.2338 18.9874C71.9709 19.4923 72.5313 20.1385 72.915 20.9261C73.3088 21.7137 73.5057 22.5821 73.5057 23.5313C73.5057 24.9046 73.2028 26.0658 72.5969 27.015C72.0012 27.9541 71.158 28.671 70.0675 29.1658C68.9769 29.6505 67.6945 29.8928 66.2203 29.8928Z" fill="#999999"/>
<path d="M76.6562 21.8804V21.532C76.6562 20.3506 76.8278 19.255 77.1712 18.2452C77.5145 17.2253 78.0093 16.3418 78.6555 15.5946C79.3018 14.8373 80.0843 14.2516 81.0032 13.8376C81.9221 13.4135 82.9521 13.2014 84.0931 13.2014C85.2442 13.2014 86.2792 13.4135 87.1981 13.8376C88.1271 14.2516 88.9147 14.8373 89.561 15.5946C90.2173 16.3418 90.7171 17.2253 91.0605 18.2452C91.4038 19.255 91.5754 20.3506 91.5754 21.532V21.8804C91.5754 23.0618 91.4038 24.1574 91.0605 25.1671C90.7171 26.1769 90.2173 27.0604 89.561 27.8178C88.9147 28.565 88.1321 29.1506 87.2133 29.5747C86.3045 29.9887 85.2745 30.1957 84.1234 30.1957C82.9723 30.1957 81.9372 29.9887 81.0184 29.5747C80.0995 29.1506 79.3119 28.565 78.6555 27.8178C78.0093 27.0604 77.5145 26.1769 77.1712 25.1671C76.8278 24.1574 76.6562 23.0618 76.6562 21.8804ZM79.4583 21.532V21.8804C79.4583 22.6983 79.5542 23.4707 79.7461 24.1978C79.9379 24.9147 80.2257 25.5508 80.6094 26.1062C81.0032 26.6616 81.493 27.1008 82.0786 27.424C82.6643 27.737 83.3459 27.8935 84.1234 27.8935C84.8908 27.8935 85.5623 27.737 86.1379 27.424C86.7235 27.1008 87.2082 26.6616 87.5919 26.1062C87.9756 25.5508 88.2634 24.9147 88.4553 24.1978C88.6572 23.4707 88.7582 22.6983 88.7582 21.8804V21.532C88.7582 20.7242 88.6572 19.9618 88.4553 19.2449C88.2634 18.5178 87.9706 17.8766 87.5768 17.3213C87.1931 16.7558 86.7084 16.3115 86.1227 15.9884C85.5471 15.6653 84.8706 15.5037 84.0931 15.5037C83.3257 15.5037 82.6491 15.6653 82.0635 15.9884C81.4879 16.3115 81.0032 16.7558 80.6094 17.3213C80.2257 17.8766 79.9379 18.5178 79.7461 19.2449C79.5542 19.9618 79.4583 20.7242 79.4583 21.532Z" fill="#999999"/>
<path d="M94.3472 21.8804V21.532C94.3472 20.3506 94.5189 19.255 94.8622 18.2452C95.2055 17.2253 95.7003 16.3418 96.3466 15.5946C96.9928 14.8373 97.7754 14.2516 98.6943 13.8376C99.6131 13.4135 100.643 13.2014 101.784 13.2014C102.935 13.2014 103.97 13.4135 104.889 13.8376C105.818 14.2516 106.606 14.8373 107.252 15.5946C107.908 16.3418 108.408 17.2253 108.752 18.2452C109.095 19.255 109.266 20.3506 109.266 21.532V21.8804C109.266 23.0618 109.095 24.1574 108.752 25.1671C108.408 26.1769 107.908 27.0604 107.252 27.8178C106.606 28.565 105.823 29.1506 104.904 29.5747C103.996 29.9887 102.966 30.1957 101.814 30.1957C100.663 30.1957 99.6283 29.9887 98.7094 29.5747C97.7905 29.1506 97.0029 28.565 96.3466 27.8178C95.7003 27.0604 95.2055 26.1769 94.8622 25.1671C94.5189 24.1574 94.3472 23.0618 94.3472 21.8804ZM97.1493 21.532V21.8804C97.1493 22.6983 97.2453 23.4707 97.4371 24.1978C97.629 24.9147 97.9167 25.5508 98.3005 26.1062C98.6943 26.6616 99.184 27.1008 99.7697 27.424C100.355 27.737 101.037 27.8935 101.814 27.8935C102.582 27.8935 103.253 27.737 103.829 27.424C104.415 27.1008 104.899 26.6616 105.283 26.1062C105.667 25.5508 105.954 24.9147 106.146 24.1978C106.348 23.4707 106.449 22.6983 106.449 21.8804V21.532C106.449 20.7242 106.348 19.9618 106.146 19.2449C105.954 18.5178 105.662 17.8766 105.268 17.3213C104.884 16.7558 104.399 16.3115 103.814 15.9884C103.238 15.6653 102.562 15.5037 101.784 15.5037C101.017 15.5037 100.34 15.6653 99.7545 15.9884C99.179 16.3115 98.6943 16.7558 98.3005 17.3213C97.9167 17.8766 97.629 18.5178 97.4371 19.2449C97.2453 19.9618 97.1493 20.7242 97.1493 21.532Z" fill="#999999"/>
<path d="M115.567 16.7609V29.8928H112.75V13.5044H115.416L115.567 16.7609ZM114.992 21.0776L113.689 21.0322C113.699 19.9113 113.846 18.8763 114.128 17.9271C114.411 16.9679 114.83 16.1348 115.386 15.428C115.941 14.7211 116.633 14.1759 117.461 13.7922C118.289 13.3983 119.248 13.2014 120.339 13.2014C121.106 13.2014 121.813 13.3125 122.459 13.5347C123.105 13.7467 123.666 14.085 124.14 14.5495C124.615 15.014 124.983 15.6097 125.246 16.3368C125.509 17.0638 125.64 17.9423 125.64 18.9722V29.8928H122.838V19.1086C122.838 18.2503 122.691 17.5636 122.398 17.0486C122.116 16.5337 121.712 16.16 121.187 15.9278C120.662 15.6855 120.046 15.5643 119.339 15.5643C118.511 15.5643 117.819 15.7107 117.264 16.0035C116.708 16.2964 116.264 16.7003 115.931 17.2152C115.598 17.7302 115.355 18.3209 115.204 18.9874C115.063 19.6437 114.992 20.3405 114.992 21.0776ZM125.609 19.5327L123.731 20.1082C123.741 19.2095 123.888 18.3462 124.171 17.5182C124.463 16.6902 124.882 15.953 125.428 15.3068C125.983 14.6605 126.665 14.1506 127.473 13.777C128.28 13.3933 129.204 13.2014 130.244 13.2014C131.123 13.2014 131.9 13.3176 132.577 13.5498C133.264 13.7821 133.839 14.1405 134.304 14.6252C134.778 15.0998 135.137 15.7107 135.379 16.4579C135.621 17.2052 135.742 18.0937 135.742 19.1237V29.8928H132.925V19.0934C132.925 18.1745 132.779 17.4626 132.486 16.9578C132.203 16.4428 131.799 16.0843 131.274 15.8824C130.759 15.6703 130.143 15.5643 129.426 15.5643C128.81 15.5643 128.265 15.6703 127.791 15.8824C127.316 16.0944 126.917 16.3872 126.594 16.7609C126.271 17.1244 126.024 17.5434 125.852 18.018C125.69 18.4926 125.609 18.9975 125.609 19.5327Z" fill="#999999"/>
<path d="M146.784 30.1957C145.643 30.1957 144.608 30.0039 143.679 29.6202C142.76 29.2264 141.968 28.6761 141.301 27.9692C140.645 27.2624 140.14 26.4243 139.787 25.4549C139.433 24.4855 139.256 23.4253 139.256 22.2742V21.638C139.256 20.3051 139.453 19.1187 139.847 18.0786C140.241 17.0284 140.776 16.1398 141.453 15.4128C142.129 14.6858 142.897 14.1355 143.755 13.7619C144.613 13.3882 145.502 13.2014 146.421 13.2014C147.592 13.2014 148.602 13.4034 149.45 13.8073C150.308 14.2112 151.01 14.7767 151.555 15.5037C152.101 16.2206 152.505 17.0688 152.767 18.0483C153.03 19.0177 153.161 20.0779 153.161 21.2291V22.4862H140.923V20.1991H150.359V19.987C150.318 19.26 150.167 18.5532 149.904 17.8665C149.652 17.1799 149.248 16.6144 148.693 16.1701C148.137 15.7258 147.38 15.5037 146.421 15.5037C145.785 15.5037 145.199 15.64 144.664 15.9127C144.129 16.1752 143.669 16.569 143.285 17.0941C142.902 17.6192 142.604 18.2604 142.392 19.0177C142.18 19.775 142.074 20.6484 142.074 21.638V22.2742C142.074 23.0517 142.18 23.7838 142.392 24.4704C142.614 25.1469 142.932 25.7427 143.346 26.2577C143.77 26.7727 144.28 27.1766 144.876 27.4694C145.482 27.7622 146.168 27.9086 146.936 27.9086C147.925 27.9086 148.763 27.7067 149.45 27.3028C150.137 26.8989 150.737 26.3587 151.252 25.6821L152.949 27.0301C152.595 27.5653 152.146 28.0752 151.601 28.5599C151.056 29.0446 150.384 29.4384 149.586 29.7414C148.799 30.0443 147.865 30.1957 146.784 30.1957Z" fill="#999999"/>
<path d="M159.235 16.0793V29.8928H156.433V13.5044H159.159L159.235 16.0793ZM164.354 13.4135L164.339 16.0187C164.107 15.9682 163.885 15.9379 163.673 15.9278C163.471 15.9076 163.238 15.8975 162.976 15.8975C162.33 15.8975 161.759 15.9985 161.264 16.2004C160.769 16.4024 160.35 16.6851 160.007 17.0486C159.664 17.4122 159.391 17.8463 159.189 18.3512C158.997 18.846 158.871 19.3913 158.811 19.987L158.023 20.4414C158.023 19.4519 158.119 18.5229 158.311 17.6545C158.513 16.7861 158.821 16.0187 159.235 15.3522C159.649 14.6757 160.174 14.1506 160.81 13.777C161.456 13.3933 162.224 13.2014 163.112 13.2014C163.314 13.2014 163.546 13.2267 163.809 13.2772C164.071 13.3176 164.253 13.363 164.354 13.4135Z" fill="#999999"/>
<path d="M176.002 27.0907V18.6542C176.002 18.0079 175.87 17.4475 175.608 16.9729C175.355 16.4882 174.972 16.1146 174.457 15.8521C173.942 15.5895 173.306 15.4583 172.548 15.4583C171.841 15.4583 171.22 15.5794 170.685 15.8218C170.16 16.0641 169.746 16.3822 169.443 16.776C169.15 17.1698 169.004 17.5939 169.004 18.0483H166.202C166.202 17.4626 166.353 16.882 166.656 16.3065C166.959 15.7309 167.393 15.2109 167.959 14.7464C168.535 14.2718 169.221 13.8982 170.019 13.6255C170.827 13.3428 171.725 13.2014 172.715 13.2014C173.906 13.2014 174.957 13.4034 175.865 13.8073C176.784 14.2112 177.501 14.8221 178.016 15.64C178.541 16.4478 178.804 17.4626 178.804 18.6845V26.3183C178.804 26.8635 178.849 27.4441 178.94 28.0601C179.041 28.6761 179.188 29.2062 179.379 29.6505V29.8928H176.456C176.315 29.5697 176.204 29.1405 176.123 28.6054C176.042 28.0601 176.002 27.5552 176.002 27.0907ZM176.486 19.9568L176.517 21.9258H173.684C172.887 21.9258 172.175 21.9914 171.549 22.1227C170.923 22.2439 170.398 22.4307 169.973 22.6831C169.549 22.9356 169.226 23.2536 169.004 23.6373C168.782 24.011 168.671 24.4502 168.671 24.9551C168.671 25.4701 168.787 25.9396 169.019 26.3637C169.251 26.7878 169.6 27.1261 170.064 27.3785C170.539 27.6209 171.12 27.742 171.806 27.742C172.664 27.742 173.422 27.5603 174.078 27.1968C174.734 26.8332 175.254 26.3889 175.638 25.8639C176.032 25.3388 176.244 24.8289 176.274 24.3341L177.471 25.6821C177.4 26.1062 177.208 26.5758 176.895 27.0907C176.582 27.6057 176.163 28.1005 175.638 28.5751C175.123 29.0396 174.507 29.4283 173.79 29.7414C173.083 30.0443 172.286 30.1957 171.397 30.1957C170.286 30.1957 169.312 29.9787 168.474 29.5445C167.646 29.1103 167 28.5296 166.535 27.8026C166.081 27.0655 165.854 26.2425 165.854 25.3337C165.854 24.4552 166.025 23.6828 166.369 23.0163C166.712 22.3398 167.207 21.7794 167.853 21.3351C168.499 20.8807 169.277 20.5374 170.185 20.3051C171.094 20.0729 172.109 19.9568 173.23 19.9568H176.486Z" fill="#999999"/>
<path d="M186.014 17.0032V29.8928H183.211V13.5044H185.862L186.014 17.0032ZM185.347 21.0776L184.181 21.0322C184.191 19.9113 184.357 18.8763 184.681 17.9271C185.004 16.9679 185.458 16.1348 186.044 15.428C186.629 14.7211 187.326 14.1759 188.134 13.7922C188.952 13.3983 189.856 13.2014 190.845 13.2014C191.653 13.2014 192.38 13.3125 193.026 13.5347C193.673 13.7467 194.223 14.09 194.677 14.5646C195.142 15.0392 195.495 15.6552 195.738 16.4125C195.98 17.1597 196.101 18.0735 196.101 19.154V29.8928H193.284V19.1237C193.284 18.2654 193.158 17.5788 192.905 17.0638C192.653 16.5387 192.284 16.16 191.799 15.9278C191.315 15.6855 190.719 15.5643 190.012 15.5643C189.315 15.5643 188.679 15.7107 188.104 16.0035C187.538 16.2964 187.049 16.7003 186.635 17.2152C186.231 17.7302 185.913 18.3209 185.68 18.9874C185.458 19.6437 185.347 20.3405 185.347 21.0776Z" fill="#999999"/>
<path d="M210.975 13.5044H213.519V29.5445C213.519 30.9884 213.227 32.2203 212.641 33.2402C212.055 34.26 211.237 35.0325 210.187 35.5576C209.147 36.0928 207.946 36.3603 206.582 36.3603C206.017 36.3603 205.35 36.2695 204.583 36.0877C203.826 35.9161 203.078 35.6182 202.341 35.1941C201.614 34.7801 201.003 34.2197 200.509 33.5128L201.978 31.8467C202.664 32.6747 203.381 33.2503 204.129 33.5734C204.886 33.8965 205.633 34.0581 206.37 34.0581C207.259 34.0581 208.026 33.8915 208.673 33.5583C209.319 33.225 209.819 32.7303 210.172 32.0739C210.536 31.4277 210.717 30.6299 210.717 29.6808V17.1092L210.975 13.5044ZM199.691 21.8804V21.5623C199.691 20.3102 199.837 19.1742 200.13 18.1543C200.433 17.1244 200.862 16.2408 201.417 15.5037C201.983 14.7666 202.664 14.2011 203.462 13.8073C204.26 13.4034 205.159 13.2014 206.158 13.2014C207.188 13.2014 208.087 13.3832 208.854 13.7467C209.632 14.1001 210.288 14.6202 210.823 15.3068C211.369 15.9833 211.798 16.8012 212.111 17.7605C212.424 18.7198 212.641 19.8053 212.762 21.017V22.4105C212.651 23.6121 212.434 24.6925 212.111 25.6518C211.798 26.6111 211.369 27.429 210.823 28.1055C210.288 28.7821 209.632 29.3021 208.854 29.6656C208.077 30.019 207.168 30.1957 206.128 30.1957C205.148 30.1957 204.26 29.9887 203.462 29.5747C202.675 29.1607 201.998 28.5801 201.433 27.8329C200.867 27.0857 200.433 26.2072 200.13 25.1974C199.837 24.1776 199.691 23.0719 199.691 21.8804ZM202.493 21.5623V21.8804C202.493 22.6983 202.574 23.4657 202.735 24.1826C202.907 24.8995 203.164 25.5306 203.508 26.0759C203.861 26.6212 204.31 27.0503 204.856 27.3634C205.401 27.6663 206.052 27.8178 206.81 27.8178C207.739 27.8178 208.506 27.6209 209.112 27.227C209.718 26.8332 210.197 26.3132 210.551 25.667C210.914 25.0207 211.197 24.3189 211.399 23.5616V19.9113C211.288 19.3559 211.116 18.8208 210.884 18.3058C210.662 17.7807 210.369 17.3162 210.005 16.9123C209.652 16.4983 209.213 16.1701 208.688 15.9278C208.163 15.6855 207.547 15.5643 206.84 15.5643C206.072 15.5643 205.411 15.7258 204.856 16.049C204.31 16.362 203.861 16.7962 203.508 17.3516C203.164 17.8968 202.907 18.533 202.735 19.26C202.574 19.9769 202.493 20.7444 202.493 21.5623Z" fill="#999999"/>
<path d="M18.1831 17.7231C25.9889 12.8192 36.5204 16.4513 32.1166 25.033C27.7128 33.6096 -12.5521 17.7129 3.9495 25.6129C20.4511 33.513 26.8127 49.6031 33.5659 34.393C40.3191 19.183 48.4555 -13.7296 25.5719 6.27235C2.68837 26.2743 8.43977 23.8376 18.1831 17.7231Z" fill="#999999"/>
</svg>
