<svg width="155" height="41" viewBox="0 0 155 41" fill="none" xmlns="http://www.w3.org/2000/svg">
<path d="M64.7878 29.866H60.1833L60.2136 27.488H64.7878C66.3631 27.488 67.6757 27.1598 68.7259 26.5035C69.7761 25.8371 70.5637 24.9081 71.0887 23.7166C71.6239 22.5149 71.8915 21.1114 71.8915 19.5058V18.1578C71.8915 16.8956 71.74 15.7748 71.4371 14.7953C71.1342 13.8057 70.6899 12.9727 70.1042 12.2961C69.5186 11.6095 68.8016 11.0895 67.9534 10.7361C67.1153 10.3826 66.151 10.2059 65.0605 10.2059H60.0924V7.81279H65.0605C66.5044 7.81279 67.8222 8.05513 69.0137 8.53982C70.2052 9.01441 71.2301 9.7061 72.0884 10.6149C72.9568 11.5136 73.6233 12.6041 74.0877 13.8865C74.5522 15.1588 74.7845 16.5927 74.7845 18.1881V19.5058C74.7845 21.1013 74.5522 22.5402 74.0877 23.8226C73.6233 25.0949 72.9518 26.1804 72.0733 27.0791C71.2049 27.9778 70.1547 28.6694 68.9228 29.1541C67.701 29.6287 66.3227 29.866 64.7878 29.866ZM61.7434 7.81279V29.866H58.8201V7.81279H61.7434Z" fill="#999999"/>
<path d="M81.5549 16.0525V29.866H78.7528V13.4776H81.4792L81.5549 16.0525ZM86.6744 13.3867L86.6593 15.9919C86.427 15.9414 86.2049 15.9111 85.9928 15.901C85.7909 15.8808 85.5586 15.8707 85.2961 15.8707C84.6499 15.8707 84.0793 15.9717 83.5846 16.1736C83.0898 16.3756 82.6707 16.6583 82.3274 17.0218C81.9841 17.3853 81.7115 17.8195 81.5095 18.3244C81.3176 18.8192 81.1914 19.3645 81.1308 19.9602L80.3432 20.4146C80.3432 19.4251 80.4392 18.4961 80.631 17.6277C80.833 16.7593 81.1409 15.9919 81.5549 15.3254C81.9689 14.6489 82.494 14.1238 83.1302 13.7502C83.7764 13.3665 84.5438 13.1746 85.4324 13.1746C85.6344 13.1746 85.8666 13.1999 86.1292 13.2504C86.3917 13.2908 86.5735 13.3362 86.6744 13.3867Z" fill="#999999"/>
<path d="M88.2194 21.8535V21.5052C88.2194 20.3238 88.391 19.2282 88.7344 18.2184C89.0777 17.1985 89.5725 16.315 90.2187 15.5678C90.865 14.8104 91.6475 14.2248 92.5664 13.8108C93.4853 13.3867 94.5152 13.1746 95.6563 13.1746C96.8074 13.1746 97.8424 13.3867 98.7613 13.8108C99.6903 14.2248 100.478 14.8104 101.124 15.5678C101.78 16.315 102.28 17.1985 102.624 18.2184C102.967 19.2282 103.139 20.3238 103.139 21.5052V21.8535C103.139 23.035 102.967 24.1306 102.624 25.1403C102.28 26.1501 101.78 27.0336 101.124 27.7909C100.478 28.5382 99.6953 29.1238 98.7764 29.5479C97.8677 29.9619 96.8377 30.1689 95.6866 30.1689C94.5354 30.1689 93.5004 29.9619 92.5816 29.5479C91.6627 29.1238 90.875 28.5382 90.2187 27.7909C89.5725 27.0336 89.0777 26.1501 88.7344 25.1403C88.391 24.1306 88.2194 23.035 88.2194 21.8535ZM91.0215 21.5052V21.8535C91.0215 22.6714 91.1174 23.4439 91.3092 24.1709C91.5011 24.8879 91.7889 25.524 92.1726 26.0794C92.5664 26.6348 93.0561 27.074 93.6418 27.3971C94.2275 27.7102 94.909 27.8667 95.6866 27.8667C96.454 27.8667 97.1255 27.7102 97.701 27.3971C98.2867 27.074 98.7714 26.6348 99.1551 26.0794C99.5388 25.524 99.8266 24.8879 100.018 24.1709C100.22 23.4439 100.321 22.6714 100.321 21.8535V21.5052C100.321 20.6974 100.22 19.935 100.018 19.2181C99.8266 18.491 99.5338 17.8498 99.14 17.2945C98.7562 16.729 98.2716 16.2847 97.6859 15.9616C97.1103 15.6385 96.4338 15.4769 95.6563 15.4769C94.8889 15.4769 94.2123 15.6385 93.6267 15.9616C93.0511 16.2847 92.5664 16.729 92.1726 17.2945C91.7889 17.8498 91.5011 18.491 91.3092 19.2181C91.1174 19.935 91.0215 20.6974 91.0215 21.5052Z" fill="#999999"/>
<path d="M109.455 16.628V36.1669H106.637V13.4776H109.212L109.455 16.628ZM120.496 21.5355V21.8535C120.496 23.0451 120.355 24.1508 120.072 25.1706C119.79 26.1804 119.376 27.0589 118.83 27.8061C118.295 28.5533 117.634 29.1339 116.846 29.5479C116.059 29.9619 115.155 30.1689 114.135 30.1689C113.095 30.1689 112.176 29.9973 111.378 29.654C110.581 29.3106 109.904 28.8108 109.349 28.1545C108.793 27.4981 108.349 26.7105 108.016 25.7916C107.693 24.8727 107.471 23.8377 107.349 22.6866V20.9902C107.471 19.7785 107.698 18.693 108.031 17.7337C108.364 16.7744 108.803 15.9565 109.349 15.28C109.904 14.5933 110.576 14.0733 111.363 13.7199C112.151 13.3564 113.06 13.1746 114.09 13.1746C115.119 13.1746 116.033 13.3766 116.831 13.7805C117.629 14.1743 118.3 14.7398 118.845 15.4769C119.391 16.214 119.8 17.0976 120.072 18.1275C120.355 19.1474 120.496 20.2834 120.496 21.5355ZM117.679 21.8535V21.5355C117.679 20.7176 117.593 19.9501 117.422 19.2332C117.25 18.5062 116.982 17.87 116.619 17.3248C116.266 16.7694 115.811 16.3352 115.256 16.0222C114.7 15.699 114.039 15.5375 113.272 15.5375C112.565 15.5375 111.949 15.6586 111.424 15.901C110.909 16.1433 110.47 16.4715 110.106 16.8855C109.742 17.2894 109.445 17.7539 109.212 18.279C108.99 18.794 108.824 19.3291 108.713 19.8845V23.8074C108.914 24.5143 109.197 25.1807 109.561 25.8068C109.924 26.4227 110.409 26.9226 111.015 27.3063C111.621 27.6799 112.383 27.8667 113.302 27.8667C114.059 27.8667 114.711 27.7102 115.256 27.3971C115.811 27.074 116.266 26.6348 116.619 26.0794C116.982 25.524 117.25 24.8879 117.422 24.1709C117.593 23.4439 117.679 22.6714 117.679 21.8535Z" fill="#999999"/>
<path d="M127.115 6.60107V29.866H124.298V6.60107H127.115Z" fill="#999999"/>
<path d="M138.415 30.1689C137.274 30.1689 136.239 29.9771 135.31 29.5934C134.391 29.1996 133.598 28.6492 132.932 27.9424C132.275 27.2356 131.77 26.3975 131.417 25.4281C131.064 24.4587 130.887 23.3985 130.887 22.2474V21.6112C130.887 20.2783 131.084 19.0918 131.478 18.0518C131.871 17.0016 132.407 16.113 133.083 15.386C133.76 14.659 134.527 14.1087 135.385 13.735C136.244 13.3614 137.132 13.1746 138.051 13.1746C139.222 13.1746 140.232 13.3766 141.08 13.7805C141.939 14.1844 142.641 14.7499 143.186 15.4769C143.731 16.1938 144.135 17.042 144.398 18.0215C144.66 18.9909 144.791 20.0511 144.791 21.2022V22.4594H132.553V20.1723H141.989V19.9602C141.949 19.2332 141.797 18.5264 141.535 17.8397C141.282 17.1531 140.879 16.5876 140.323 16.1433C139.768 15.699 139.01 15.4769 138.051 15.4769C137.415 15.4769 136.829 15.6132 136.294 15.8858C135.759 16.1484 135.3 16.5422 134.916 17.0673C134.532 17.5923 134.234 18.2335 134.022 18.9909C133.81 19.7482 133.704 20.6216 133.704 21.6112V22.2474C133.704 23.0249 133.81 23.7569 134.022 24.4436C134.244 25.1201 134.562 25.7159 134.976 26.2309C135.401 26.7458 135.91 27.1497 136.506 27.4426C137.112 27.7354 137.799 27.8818 138.566 27.8818C139.556 27.8818 140.394 27.6799 141.08 27.276C141.767 26.8721 142.368 26.3318 142.883 25.6553L144.579 27.0033C144.226 27.5385 143.777 28.0484 143.231 28.5331C142.686 29.0178 142.014 29.4116 141.217 29.7145C140.429 30.0175 139.495 30.1689 138.415 30.1689Z" fill="#999999"/>
<path d="M154.924 13.4776V15.6284H146.064V13.4776H154.924ZM149.063 9.49404H151.865V25.8068C151.865 26.3621 151.951 26.7812 152.122 27.0639C152.294 27.3467 152.516 27.5335 152.789 27.6243C153.061 27.7152 153.354 27.7607 153.667 27.7607C153.899 27.7607 154.142 27.7405 154.394 27.7001C154.657 27.6496 154.854 27.6092 154.985 27.5789L155 29.866C154.778 29.9367 154.485 30.0023 154.122 30.0629C153.768 30.1336 153.339 30.1689 152.834 30.1689C152.147 30.1689 151.516 30.0326 150.941 29.76C150.365 29.4873 149.906 29.033 149.562 28.3968C149.229 27.7506 149.063 26.8822 149.063 25.7916V9.49404Z" fill="#999999"/>
<path d="M3.70947 12.2383C15.258 -7.80945 35.8329 -1.61862 29.3695 19.1565C22.9062 39.9317 41.8894 20.0874 40.9741 32.1232C40.0587 44.1589 4.13663 43.2331 15.6801 31.1872C27.2185 19.1413 28.5457 15.0056 16.6768 22.7581C4.80788 30.5106 -5.13375 27.5856 3.70947 12.2383Z" fill="#999999"/>
<path d="M3.70947 12.2383C15.258 -7.80945 35.8329 -1.61862 29.3695 19.1565C22.9062 39.9317 41.8894 20.0874 40.9741 32.1232C40.0587 44.1589 4.13663 43.2331 15.6801 31.1872C27.2185 19.1413 28.5457 15.0056 16.6768 22.7581C4.80788 30.5106 -5.13375 27.5856 3.70947 12.2383Z" fill="#999999"/>
</svg>
