<svg width="195" height="41" viewBox="0 0 195 41" fill="none" xmlns="http://www.w3.org/2000/svg">
<path d="M75.9312 18.1454V19.5388C75.9312 21.1949 75.7242 22.6792 75.3102 23.9919C74.8962 25.3046 74.3004 26.4204 73.5229 27.3393C72.7454 28.2582 71.8114 28.9599 70.7208 29.4446C69.6404 29.9293 68.4286 30.1717 67.0857 30.1717C65.7831 30.1717 64.5865 29.9293 63.496 29.4446C62.4155 28.9599 61.4764 28.2582 60.6787 27.3393C59.8911 26.4204 59.2802 25.3046 58.846 23.9919C58.4118 22.6792 58.1947 21.1949 58.1947 19.5388V18.1454C58.1947 16.4894 58.4068 15.0101 58.8309 13.7075C59.2651 12.3948 59.876 11.279 60.6636 10.3601C61.4512 9.43112 62.3852 8.72429 63.4657 8.2396C64.5562 7.75492 65.7528 7.51257 67.0554 7.51257C68.3984 7.51257 69.6101 7.75492 70.6905 8.2396C71.7811 8.72429 72.7151 9.43112 73.4926 10.3601C74.2802 11.279 74.881 12.3948 75.295 13.7075C75.7191 15.0101 75.9312 16.4894 75.9312 18.1454ZM73.0382 19.5388V18.1151C73.0382 16.8024 72.9019 15.6412 72.6293 14.6314C72.3667 13.6216 71.978 12.7734 71.463 12.0868C70.948 11.4002 70.3169 10.8801 69.5697 10.5267C68.8326 10.1733 67.9945 9.99659 67.0554 9.99659C66.1466 9.99659 65.3236 10.1733 64.5865 10.5267C63.8595 10.8801 63.2334 11.4002 62.7083 12.0868C62.1934 12.7734 61.7945 13.6216 61.5118 14.6314C61.229 15.6412 61.0877 16.8024 61.0877 18.1151V19.5388C61.0877 20.8616 61.229 22.033 61.5118 23.0528C61.7945 24.0626 62.1984 24.9158 62.7235 25.6126C63.2587 26.2992 63.8898 26.8192 64.6168 27.1727C65.3539 27.5261 66.1769 27.7028 67.0857 27.7028C68.0348 27.7028 68.878 27.5261 69.6151 27.1727C70.3522 26.8192 70.9733 26.2992 71.4781 25.6126C71.9931 24.9158 72.3819 24.0626 72.6444 23.0528C72.9069 22.033 73.0382 20.8616 73.0382 19.5388Z" fill="#999999"/>
<path d="M82.6865 16.6307V36.1696H79.8693V13.4803H82.4442L82.6865 16.6307ZM93.7283 21.5382V21.8563C93.7283 23.0478 93.5869 24.1535 93.3042 25.1733C93.0214 26.1831 92.6074 27.0616 92.0621 27.8088C91.527 28.556 90.8656 29.1366 90.078 29.5506C89.2903 29.9647 88.3866 30.1717 87.3667 30.1717C86.3267 30.1717 85.4078 30 84.6101 29.6567C83.8124 29.3134 83.1358 28.8135 82.5805 28.1572C82.0251 27.5008 81.5808 26.7132 81.2476 25.7943C80.9245 24.8754 80.7023 23.8404 80.5811 22.6893V20.9929C80.7023 19.7812 80.9295 18.6957 81.2627 17.7364C81.596 16.7771 82.0352 15.9592 82.5805 15.2827C83.1358 14.5961 83.8073 14.076 84.5949 13.7226C85.3826 13.3591 86.2914 13.1773 87.3213 13.1773C88.3513 13.1773 89.2651 13.3793 90.0628 13.7832C90.8605 14.177 91.532 14.7425 92.0773 15.4796C92.6226 16.2167 93.0315 17.1003 93.3042 18.1302C93.5869 19.1501 93.7283 20.2861 93.7283 21.5382ZM90.911 21.8563V21.5382C90.911 20.7203 90.8252 19.9529 90.6535 19.2359C90.4819 18.5089 90.2143 17.8727 89.8508 17.3275C89.4974 16.7721 89.043 16.3379 88.4876 16.0249C87.9322 15.7017 87.2708 15.5402 86.5034 15.5402C85.7966 15.5402 85.1806 15.6614 84.6555 15.9037C84.1406 16.146 83.7013 16.4742 83.3378 16.8882C82.9743 17.2921 82.6764 17.7566 82.4442 18.2817C82.222 18.7967 82.0554 19.3318 81.9443 19.8872V23.8101C82.1463 24.517 82.429 25.1834 82.7925 25.8095C83.156 26.4254 83.6407 26.9253 84.2466 27.309C84.8524 27.6826 85.6148 27.8694 86.5337 27.8694C87.291 27.8694 87.9423 27.7129 88.4876 27.3999C89.043 27.0767 89.4974 26.6375 89.8508 26.0821C90.2143 25.5267 90.4819 24.8906 90.6535 24.1737C90.8252 23.4466 90.911 22.6742 90.911 21.8563Z" fill="#999999"/>
<path d="M104.104 30.1717C102.963 30.1717 101.928 29.9798 100.999 29.5961C100.08 29.2023 99.287 28.652 98.6206 27.9451C97.9642 27.2383 97.4593 26.4002 97.1059 25.4308C96.7525 24.4614 96.5758 23.4012 96.5758 22.2501V21.6139C96.5758 20.281 96.7727 19.0946 97.1665 18.0545C97.5603 17.0043 98.0955 16.1158 98.772 15.3887C99.4486 14.6617 100.216 14.1114 101.074 13.7378C101.933 13.3641 102.821 13.1773 103.74 13.1773C104.911 13.1773 105.921 13.3793 106.769 13.7832C107.628 14.1871 108.329 14.7526 108.875 15.4796C109.42 16.1965 109.824 17.0447 110.086 18.0242C110.349 18.9936 110.48 20.0538 110.48 21.205V22.4621H98.2419V20.175H107.678V19.9629C107.638 19.2359 107.486 18.5291 107.224 17.8424C106.971 17.1558 106.567 16.5903 106.012 16.146C105.457 15.7017 104.699 15.4796 103.74 15.4796C103.104 15.4796 102.518 15.6159 101.983 15.8886C101.448 16.1511 100.988 16.5449 100.605 17.07C100.221 17.5951 99.9232 18.2363 99.7111 18.9936C99.4991 19.7509 99.393 20.6243 99.393 21.6139V22.2501C99.393 23.0276 99.4991 23.7597 99.7111 24.4463C99.9333 25.1228 100.251 25.7186 100.665 26.2336C101.089 26.7486 101.599 27.1525 102.195 27.4453C102.801 27.7381 103.488 27.8845 104.255 27.8845C105.245 27.8845 106.083 27.6826 106.769 27.2787C107.456 26.8748 108.057 26.3346 108.572 25.658L110.268 27.006C109.915 27.5412 109.465 28.0511 108.92 28.5358C108.375 29.0205 107.703 29.4143 106.906 29.7173C106.118 30.0202 105.184 30.1717 104.104 30.1717Z" fill="#999999"/>
<path d="M116.554 16.9791V29.8687H113.752V13.4803H116.402L116.554 16.9791ZM115.888 21.0535L114.721 21.0081C114.731 19.8872 114.898 18.8522 115.221 17.903C115.544 16.9438 115.999 16.1107 116.584 15.4039C117.17 14.697 117.867 14.1518 118.674 13.7681C119.492 13.3742 120.396 13.1773 121.386 13.1773C122.193 13.1773 122.921 13.2884 123.567 13.5106C124.213 13.7226 124.763 14.0659 125.218 14.5405C125.682 15.0151 126.036 15.6311 126.278 16.3884C126.52 17.1356 126.641 18.0494 126.641 19.1299V29.8687H123.824V19.0996C123.824 18.2413 123.698 17.5547 123.446 17.0397C123.193 16.5146 122.825 16.1359 122.34 15.9037C121.855 15.6614 121.259 15.5402 120.553 15.5402C119.856 15.5402 119.22 15.6866 118.644 15.9794C118.079 16.2723 117.589 16.6762 117.175 17.1912C116.771 17.7061 116.453 18.2968 116.221 18.9633C115.999 19.6196 115.888 20.3164 115.888 21.0535Z" fill="#999999"/>
<path d="M137.289 29.8687H132.685L132.715 27.4907H137.289C138.865 27.4907 140.177 27.1626 141.228 26.5062C142.278 25.8398 143.065 24.9108 143.59 23.7193C144.126 22.5176 144.393 21.1141 144.393 19.5086V18.1605C144.393 16.8983 144.242 15.7775 143.939 14.798C143.636 13.8084 143.191 12.9754 142.606 12.2988C142.02 11.6122 141.303 11.0922 140.455 10.7388C139.617 10.3853 138.653 10.2086 137.562 10.2086H132.594V7.8155H137.562C139.006 7.8155 140.324 8.05784 141.515 8.54253C142.707 9.01712 143.732 9.70881 144.59 10.6176C145.458 11.5163 146.125 12.6068 146.589 13.8892C147.054 15.1615 147.286 16.5954 147.286 18.1908V19.5086C147.286 21.104 147.054 22.5429 146.589 23.8253C146.125 25.0976 145.453 26.1831 144.575 27.0818C143.706 27.9805 142.656 28.6722 141.424 29.1568C140.203 29.6314 138.824 29.8687 137.289 29.8687ZM134.245 7.8155V29.8687H131.322V7.8155H134.245Z" fill="#999999"/>
<path d="M150.512 21.8563V21.5079C150.512 20.3265 150.684 19.2309 151.027 18.2211C151.371 17.2012 151.865 16.3177 152.512 15.5705C153.158 14.8132 153.94 14.2275 154.859 13.8135C155.778 13.3894 156.808 13.1773 157.949 13.1773C159.1 13.1773 160.135 13.3894 161.054 13.8135C161.983 14.2275 162.771 14.8132 163.417 15.5705C164.073 16.3177 164.573 17.2012 164.917 18.2211C165.26 19.2309 165.432 20.3265 165.432 21.5079V21.8563C165.432 23.0377 165.26 24.1333 164.917 25.143C164.573 26.1528 164.073 27.0363 163.417 27.7937C162.771 28.5409 161.988 29.1265 161.069 29.5506C160.161 29.9647 159.131 30.1717 157.979 30.1717C156.828 30.1717 155.793 29.9647 154.874 29.5506C153.956 29.1265 153.168 28.5409 152.512 27.7937C151.865 27.0363 151.371 26.1528 151.027 25.143C150.684 24.1333 150.512 23.0377 150.512 21.8563ZM153.314 21.5079V21.8563C153.314 22.6742 153.41 23.4466 153.602 24.1737C153.794 24.8906 154.082 25.5267 154.465 26.0821C154.859 26.6375 155.349 27.0767 155.935 27.3999C156.52 27.7129 157.202 27.8694 157.979 27.8694C158.747 27.8694 159.418 27.7129 159.994 27.3999C160.58 27.0767 161.064 26.6375 161.448 26.0821C161.832 25.5267 162.119 24.8906 162.311 24.1737C162.513 23.4466 162.614 22.6742 162.614 21.8563V21.5079C162.614 20.7001 162.513 19.9377 162.311 19.2208C162.119 18.4937 161.827 17.8525 161.433 17.2972C161.049 16.7317 160.564 16.2874 159.979 15.9643C159.403 15.6412 158.727 15.4796 157.949 15.4796C157.182 15.4796 156.505 15.6412 155.92 15.9643C155.344 16.2874 154.859 16.7317 154.465 17.2972C154.082 17.8525 153.794 18.4937 153.602 19.2208C153.41 19.9377 153.314 20.7001 153.314 21.5079Z" fill="#999999"/>
<path d="M168.203 21.8563V21.5079C168.203 20.3265 168.375 19.2309 168.718 18.2211C169.062 17.2012 169.556 16.3177 170.203 15.5705C170.849 14.8132 171.631 14.2275 172.55 13.8135C173.469 13.3894 174.499 13.1773 175.64 13.1773C176.791 13.1773 177.826 13.3894 178.745 13.8135C179.674 14.2275 180.462 14.8132 181.108 15.5705C181.764 16.3177 182.264 17.2012 182.608 18.2211C182.951 19.2309 183.123 20.3265 183.123 21.5079V21.8563C183.123 23.0377 182.951 24.1333 182.608 25.143C182.264 26.1528 181.764 27.0363 181.108 27.7937C180.462 28.5409 179.679 29.1265 178.76 29.5506C177.852 29.9647 176.822 30.1717 175.671 30.1717C174.519 30.1717 173.484 29.9647 172.565 29.5506C171.647 29.1265 170.859 28.5409 170.203 27.7937C169.556 27.0363 169.062 26.1528 168.718 25.143C168.375 24.1333 168.203 23.0377 168.203 21.8563ZM171.005 21.5079V21.8563C171.005 22.6742 171.101 23.4466 171.293 24.1737C171.485 24.8906 171.773 25.5267 172.157 26.0821C172.55 26.6375 173.04 27.0767 173.626 27.3999C174.211 27.7129 174.893 27.8694 175.671 27.8694C176.438 27.8694 177.109 27.7129 177.685 27.3999C178.271 27.0767 178.755 26.6375 179.139 26.0821C179.523 25.5267 179.811 24.8906 180.002 24.1737C180.204 23.4466 180.305 22.6742 180.305 21.8563V21.5079C180.305 20.7001 180.204 19.9377 180.002 19.2208C179.811 18.4937 179.518 17.8525 179.124 17.2972C178.74 16.7317 178.256 16.2874 177.67 15.9643C177.094 15.6412 176.418 15.4796 175.64 15.4796C174.873 15.4796 174.196 15.6412 173.611 15.9643C173.035 16.2874 172.55 16.7317 172.157 17.2972C171.773 17.8525 171.485 18.4937 171.293 19.2208C171.101 19.9377 171.005 20.7001 171.005 21.5079Z" fill="#999999"/>
<path d="M189.439 16.0552V29.8687H186.637V13.4803H189.363L189.439 16.0552ZM194.558 13.3894L194.543 15.9946C194.311 15.9441 194.089 15.9138 193.877 15.9037C193.675 15.8835 193.442 15.8734 193.18 15.8734C192.534 15.8734 191.963 15.9744 191.468 16.1763C190.973 16.3783 190.554 16.661 190.211 17.0245C189.868 17.3881 189.595 17.8223 189.393 18.3271C189.201 18.8219 189.075 19.3672 189.015 19.9629L188.227 20.4173C188.227 19.4278 188.323 18.4988 188.515 17.6304C188.717 16.762 189.025 15.9946 189.439 15.3281C189.853 14.6516 190.378 14.1265 191.014 13.7529C191.66 13.3692 192.428 13.1773 193.316 13.1773C193.518 13.1773 193.75 13.2026 194.013 13.2531C194.275 13.2935 194.457 13.3389 194.558 13.3894Z" fill="#999999"/>
<path d="M25.8807 5.08879L41.1364 0.00183105L25.8807 20.3497L41.1364 40.6975L25.8807 35.6106L41.1364 0.00183105V40.6975" fill="#999999"/>
<path d="M25.8807 5.08875H0.45459L25.8807 20.3496L0.45459 35.6105H25.8807L0.45459 5.08875V35.6105" fill="#999999"/>
</svg>
