<svg width="131" height="41" viewBox="0 0 131 41" fill="none" xmlns="http://www.w3.org/2000/svg">
<path d="M71.3624 38.2838V14.1029L71.6623 10.204H74.8489V38.2838H71.3624ZM57.7349 20.5699V20.1763C57.7349 18.6267 57.9161 17.2208 58.2785 15.9587C58.6409 14.684 59.172 13.5906 59.8718 12.6783C60.5716 11.7661 61.4151 11.0663 62.4023 10.5789C63.4021 10.079 64.5393 9.8291 65.8139 9.8291C67.0886 9.8291 68.207 10.054 69.1692 10.5039C70.144 10.9413 70.9688 11.5849 71.6436 12.4346C72.3309 13.2719 72.8745 14.2841 73.2744 15.4713C73.6743 16.6585 73.9492 18.0019 74.0992 19.5015V21.226C73.9617 22.7131 73.693 24.0502 73.2931 25.2374C72.8932 26.4246 72.3496 27.4368 71.6623 28.2741C70.9875 29.1113 70.1565 29.7549 69.1692 30.2048C68.1945 30.6422 67.0636 30.8609 65.7764 30.8609C64.5268 30.8609 63.4021 30.6047 62.4023 30.0923C61.4151 29.58 60.5716 28.8614 59.8718 27.9367C59.1845 27.0119 58.6534 25.9247 58.2785 24.6751C57.9161 23.4129 57.7349 22.0445 57.7349 20.5699ZM61.2214 20.1763V20.5699C61.2214 21.5821 61.3276 22.5381 61.5401 23.4379C61.7525 24.3251 62.0774 25.1124 62.5148 25.7997C62.9647 26.4871 63.527 27.0307 64.2018 27.4306C64.8892 27.8179 65.7014 28.0116 66.6387 28.0116C67.7884 28.0116 68.7444 27.7617 69.5067 27.2618C70.2814 26.762 70.9 26.1059 71.3624 25.2936C71.8248 24.4689 72.1809 23.5879 72.4309 22.6506V18.1331C72.2934 17.4458 72.0747 16.7772 71.7748 16.1274C71.4874 15.4776 71.1125 14.8965 70.6501 14.3841C70.1877 13.8593 69.6254 13.4469 68.9631 13.1469C68.3132 12.8345 67.5509 12.6783 66.6762 12.6783C65.7264 12.6783 64.9079 12.8783 64.2206 13.2782C63.5333 13.6781 62.9647 14.2279 62.5148 14.9277C62.0774 15.615 61.7525 16.4086 61.5401 17.3083C61.3276 18.2081 61.2214 19.1641 61.2214 20.1763Z" fill="#999999"/>
<path d="M83.884 13.3906V30.486H80.4162V10.204H83.7903L83.884 13.3906ZM90.2198 10.0915L90.201 13.3157C89.9136 13.2532 89.6387 13.2157 89.3762 13.2032C89.1263 13.1782 88.8389 13.1657 88.514 13.1657C87.7142 13.1657 87.0081 13.2907 86.3958 13.5406C85.7835 13.7905 85.2649 14.1404 84.84 14.5903C84.4151 15.0402 84.0777 15.5775 83.8278 16.2024C83.5903 16.8147 83.4341 17.4895 83.3591 18.2268L82.3844 18.7892C82.3844 17.5645 82.5031 16.4148 82.7405 15.3401C82.9905 14.2654 83.3716 13.3157 83.884 12.4909C84.3963 11.6536 85.0462 11.0038 85.8335 10.5414C86.6332 10.0665 87.583 9.8291 88.6827 9.8291C88.9326 9.8291 89.22 9.86034 89.5449 9.92283C89.8699 9.97281 90.0948 10.029 90.2198 10.0915Z" fill="#999999"/>
<path d="M101.167 28.0116C101.992 28.0116 102.754 27.8429 103.454 27.5055C104.153 27.1681 104.728 26.7057 105.178 26.1184C105.628 25.5186 105.884 24.8375 105.947 24.0752H109.246C109.183 25.2749 108.777 26.3933 108.027 27.4306C107.29 28.4553 106.322 29.2863 105.122 29.9236C103.922 30.5485 102.604 30.8609 101.167 30.8609C99.6422 30.8609 98.3113 30.5922 97.1741 30.0548C96.0494 29.5175 95.1122 28.7802 94.3624 27.8429C93.6251 26.9057 93.069 25.831 92.6941 24.6188C92.3317 23.3942 92.1505 22.1008 92.1505 20.7386V19.9513C92.1505 18.5892 92.3317 17.3021 92.6941 16.0899C93.069 14.8652 93.6251 13.7843 94.3624 12.847C95.1122 11.9098 96.0494 11.1725 97.1741 10.6351C98.3113 10.0978 99.6422 9.8291 101.167 9.8291C102.754 9.8291 104.141 10.154 105.328 10.8038C106.515 11.4412 107.446 12.3159 108.121 13.4281C108.808 14.5278 109.183 15.7775 109.246 17.1771H105.947C105.884 16.3398 105.647 15.5838 105.234 14.909C104.835 14.2341 104.285 13.6968 103.585 13.2969C102.898 12.8845 102.092 12.6783 101.167 12.6783C100.105 12.6783 99.2111 12.8908 98.4863 13.3157C97.7739 13.728 97.2054 14.2904 96.7805 15.0027C96.3681 15.7025 96.0682 16.4835 95.8807 17.3458C95.7058 18.1956 95.6183 19.0641 95.6183 19.9513V20.7386C95.6183 21.6259 95.7058 22.5006 95.8807 23.3629C96.0557 24.2252 96.3493 25.0062 96.7617 25.706C97.1866 26.4058 97.7552 26.9682 98.4675 27.3931C99.1923 27.8055 100.092 28.0116 101.167 28.0116Z" fill="#999999"/>
<path d="M112.226 20.5699V20.1388C112.226 18.6767 112.439 17.3208 112.864 16.0711C113.288 14.809 113.901 13.7155 114.701 12.7908C115.5 11.8535 116.469 11.1287 117.606 10.6164C118.743 10.0915 120.018 9.8291 121.43 9.8291C122.855 9.8291 124.136 10.0915 125.273 10.6164C126.422 11.1287 127.397 11.8535 128.197 12.7908C129.009 13.7155 129.628 14.809 130.053 16.0711C130.478 17.3208 130.69 18.6767 130.69 20.1388V20.5699C130.69 22.032 130.478 23.3879 130.053 24.6376C129.628 25.8872 129.009 26.9807 128.197 27.9179C127.397 28.8427 126.429 29.5675 125.291 30.0923C124.167 30.6047 122.892 30.8609 121.467 30.8609C120.043 30.8609 118.762 30.6047 117.625 30.0923C116.488 29.5675 115.513 28.8427 114.701 27.9179C113.901 26.9807 113.288 25.8872 112.864 24.6376C112.439 23.3879 112.226 22.032 112.226 20.5699ZM115.694 20.1388V20.5699C115.694 21.5821 115.813 22.5381 116.05 23.4379C116.288 24.3251 116.644 25.1124 117.119 25.7997C117.606 26.4871 118.212 27.0307 118.937 27.4306C119.662 27.8179 120.505 28.0116 121.467 28.0116C122.417 28.0116 123.248 27.8179 123.961 27.4306C124.685 27.0307 125.285 26.4871 125.76 25.7997C126.235 25.1124 126.591 24.3251 126.829 23.4379C127.078 22.5381 127.203 21.5821 127.203 20.5699V20.1388C127.203 19.1391 127.078 18.1956 126.829 17.3083C126.591 16.4086 126.229 15.615 125.741 14.9277C125.266 14.2279 124.667 13.6781 123.942 13.2782C123.23 12.8783 122.392 12.6783 121.43 12.6783C120.48 12.6783 119.643 12.8783 118.918 13.2782C118.206 13.6781 117.606 14.2279 117.119 14.9277C116.644 15.615 116.288 16.4086 116.05 17.3083C115.813 18.1956 115.694 19.1391 115.694 20.1388Z" fill="#999999"/>
<path d="M15.2721 0.00183105H0.0163574V15.2627H15.2721V0.00183105Z" fill="#999999"/>
<path d="M25.4425 0.00183105H20.3573V10.1758H25.4425V0.00183105Z" fill="#999999"/>
<path d="M40.6982 0.00183105H30.5277V15.2627H40.6982V0.00183105Z" fill="#999999"/>
<path d="M30.5278 15.2626H15.2721V40.6974H30.5278V15.2626Z" fill="#999999"/>
<path d="M10.1868 30.5234H0.0163574V40.6973H10.1868V30.5234Z" fill="#999999"/>
<path d="M10.1868 20.3495H0.0163574V25.4365H10.1868V20.3495Z" fill="#999999"/>
<path opacity="0.8902" d="M40.6983 30.5234H35.613V40.6973H40.6983V30.5234Z" fill="#999999"/>
<path d="M40.6983 20.3495H35.613V25.4365H40.6983V20.3495Z" fill="#999999"/>
</svg>
