<svg style="display: none;" aria-hidden="true" xmlns="http://www.w3.org/2000/svg" xmlns:xlink="http://www.w3.org/1999/xlink"><symbol viewBox="0 0 32 32" fill="none" id="icon-card1"><circle cx="16" cy="16" r="14.5" stroke="#111" stroke-width="3"/><path d="M12 16v-2a4 4 0 018 0v4a4 4 0 01-8 0v-2z" stroke="#111" stroke-width="3"/></symbol><symbol viewBox="0 0 32 32" fill="none" id="icon-card2"><circle cx="16" cy="16" r="14.5" stroke="#111" stroke-width="3"/><path d="M19 11h-3m-3 10h3m0 0h1.5a2.5 2.5 0 002.5-2.5v0a2.5 2.5 0 00-2.5-2.5h-3a2.5 2.5 0 01-2.5-2.5v0a2.5 2.5 0 012.5-2.5H16m0 10v3m0-13V8" stroke="#111" stroke-width="3" stroke-linecap="square"/></symbol></svg>