<svg width="32" height="32" viewBox="0 0 32 32" xmlns="http://www.w3.org/2000/svg"><path d="M14.987 0.031 C 14.884 0.043,14.536 0.079,14.213 0.111 C 12.235 0.308,9.944 1.041,8.195 2.036 C 3.655 4.618,0.724 9.027,0.099 14.213 C 0.008 14.971,0.008 17.029,0.099 17.787 C 0.356 19.916,1.049 22.070,2.036 23.805 C 4.381 27.928,8.306 30.785,12.853 31.678 C 14.036 31.910,14.689 31.971,16.000 31.971 C 17.311 31.971,17.964 31.910,19.147 31.678 C 20.740 31.365,22.446 30.738,23.805 29.964 C 27.928 27.619,30.785 23.694,31.678 19.147 C 31.910 17.964,31.971 17.311,31.971 16.000 C 31.971 14.689,31.910 14.036,31.678 12.853 C 31.365 11.260,30.738 9.554,29.964 8.195 C 27.417 3.716,23.081 0.793,18.000 0.128 C 17.432 0.054,15.366 -0.013,14.987 0.031 M17.813 3.123 C 18.678 3.253,19.263 3.395,20.126 3.682 C 23.414 4.777,26.132 7.153,27.656 10.267 C 28.270 11.520,28.672 12.818,28.888 14.240 C 29.017 15.088,29.017 16.912,28.888 17.760 C 28.463 20.560,27.280 23.002,25.397 24.967 C 23.350 27.103,20.761 28.433,17.760 28.888 C 16.912 29.017,15.088 29.017,14.240 28.888 C 11.438 28.463,9.000 27.282,7.034 25.398 C 4.891 23.345,3.577 20.785,3.113 17.760 C 2.982 16.910,2.982 15.090,3.113 14.240 C 3.334 12.796,3.733 11.509,4.343 10.267 C 6.338 6.203,10.290 3.484,14.844 3.041 C 15.515 2.976,17.135 3.020,17.813 3.123 M14.995 8.590 C 14.214 8.729,13.230 9.188,12.560 9.727 C 11.629 10.474,11.005 11.437,10.676 12.634 L 10.535 13.147 10.534 15.973 C 10.533 18.729,10.536 18.812,10.653 19.270 C 10.985 20.574,11.759 21.722,12.808 22.469 C 13.253 22.786,14.030 23.156,14.587 23.317 C 14.963 23.425,15.129 23.440,16.000 23.440 C 17.173 23.440,17.490 23.370,18.427 22.907 C 19.913 22.173,20.930 20.907,21.347 19.270 C 21.464 18.812,21.467 18.727,21.467 16.000 C 21.467 13.273,21.464 13.188,21.347 12.730 C 21.180 12.075,20.944 11.535,20.588 10.993 C 20.026 10.137,19.273 9.484,18.339 9.043 C 17.520 8.655,17.174 8.579,16.160 8.558 C 15.676 8.547,15.152 8.562,14.995 8.590 M17.031 11.721 C 17.720 12.041,18.294 12.755,18.447 13.483 C 18.528 13.868,18.528 18.132,18.447 18.517 C 18.295 19.243,17.723 19.955,17.031 20.282 C 16.681 20.446,16.640 20.453,16.000 20.453 C 15.360 20.453,15.319 20.446,14.969 20.282 C 14.277 19.955,13.705 19.243,13.553 18.517 C 13.472 18.132,13.472 13.868,13.553 13.483 C 13.644 13.050,13.847 12.667,14.173 12.315 C 14.494 11.968,14.765 11.788,15.209 11.623 C 15.443 11.537,15.598 11.521,16.080 11.535 C 16.606 11.551,16.704 11.570,17.031 11.721 "></path></svg>
