<svg width="32" height="32" viewBox="0 0 32 32" xmlns="http://www.w3.org/2000/svg"><path d="M14.987 0.031 C 14.884 0.043,14.536 0.079,14.213 0.111 C 12.235 0.308,9.944 1.041,8.195 2.036 C 3.655 4.618,0.724 9.027,0.099 14.213 C 0.008 14.971,0.008 17.029,0.099 17.787 C 0.356 19.916,1.049 22.070,2.036 23.805 C 4.381 27.928,8.306 30.785,12.853 31.678 C 14.036 31.910,14.689 31.971,16.000 31.971 C 17.311 31.971,17.964 31.910,19.147 31.678 C 20.740 31.365,22.446 30.738,23.805 29.964 C 27.928 27.619,30.785 23.694,31.678 19.147 C 31.910 17.964,31.971 17.311,31.971 16.000 C 31.971 14.689,31.910 14.036,31.678 12.853 C 31.365 11.260,30.738 9.554,29.964 8.195 C 27.417 3.716,23.081 0.793,18.000 0.128 C 17.432 0.054,15.366 -0.013,14.987 0.031 M17.813 3.123 C 18.678 3.253,19.263 3.395,20.126 3.682 C 23.414 4.777,26.132 7.153,27.656 10.267 C 28.270 11.520,28.672 12.818,28.888 14.240 C 29.017 15.088,29.017 16.912,28.888 17.760 C 28.463 20.560,27.280 23.002,25.397 24.967 C 23.350 27.103,20.761 28.433,17.760 28.888 C 16.912 29.017,15.088 29.017,14.240 28.888 C 11.438 28.463,9.000 27.282,7.034 25.398 C 4.891 23.345,3.577 20.785,3.113 17.760 C 2.982 16.910,2.982 15.090,3.113 14.240 C 3.334 12.796,3.733 11.509,4.343 10.267 C 6.338 6.203,10.290 3.484,14.844 3.041 C 15.515 2.976,17.135 3.020,17.813 3.123 M14.507 7.996 L 14.507 9.485 14.147 9.520 C 12.517 9.680,11.195 10.744,10.678 12.311 C 10.561 12.663,10.542 12.821,10.538 13.440 C 10.533 14.290,10.590 14.565,10.908 15.227 C 11.303 16.045,11.919 16.673,12.720 17.071 C 13.478 17.448,13.507 17.452,15.760 17.488 C 17.947 17.523,17.944 17.522,18.224 17.822 C 18.377 17.986,18.507 18.300,18.507 18.507 C 18.507 18.713,18.377 19.028,18.224 19.191 C 17.932 19.504,18.063 19.492,14.653 19.509 L 11.520 19.524 11.520 21.015 L 11.520 22.507 13.013 22.507 L 14.507 22.507 14.507 24.000 L 14.507 25.493 16.000 25.493 L 17.493 25.493 17.493 24.004 L 17.493 22.515 17.853 22.480 C 19.475 22.321,20.800 21.259,21.316 19.707 C 21.439 19.334,21.458 19.189,21.462 18.560 C 21.468 17.710,21.411 17.435,21.092 16.773 C 20.697 15.955,20.081 15.327,19.280 14.929 C 18.522 14.552,18.493 14.548,16.240 14.512 C 14.053 14.477,14.056 14.478,13.776 14.178 C 13.619 14.010,13.493 13.697,13.495 13.482 C 13.497 13.077,13.832 12.646,14.228 12.536 C 14.354 12.501,15.536 12.480,17.453 12.480 L 20.480 12.480 20.480 10.987 L 20.480 9.493 18.987 9.493 L 17.493 9.493 17.493 8.000 L 17.493 6.507 16.000 6.507 L 14.507 6.507 14.507 7.996 "></path></svg>
